<?xml version="1.0" encoding="utf-8"?>
<!-- Generator: Adobe Illustrator 21.0.0, SVG Export Plug-In . SVG Version: 6.00 Build 0)  -->
<svg version="1.1" id="Layer_1" xmlns="http://www.w3.org/2000/svg" xmlns:xlink="http://www.w3.org/1999/xlink" x="0px" y="0px"
	 viewBox="0 0 512 512" style="enable-background:new 0 0 512 512;" xml:space="preserve">
<style type="text/css">
	.st0{fill:#40B040;}
</style>
<g>
	<g>
		<path class="st0" d="M340.8,171.9L208.3,318.3l-41.8-46.2c-4.5-5-12.1-5.3-17.1-0.9c-4.9,4.5-5.3,12.1-0.9,17.1l48.7,53.8
			c2.2,3.2,5.9,5.1,9.8,5.1c0.4,0,0.9-0.2,1.3-0.2c0.3,0,0.6,0.2,0.9,0.2c3.6,0,7.1-1.6,9.4-4.4l140-154.7c4.5-5,4.1-12.6-0.9-17.1
			C352.9,166.5,345.3,166.9,340.8,171.9z"/>
		<path class="st0" d="M256,62.5C149.3,62.5,62.5,149.3,62.5,256S149.3,449.5,256,449.5c106.7,0,193.5-86.8,193.5-193.5
			S362.7,62.5,256,62.5z M256,425.3c-93.3,0-169.3-75.9-169.3-169.3S162.7,86.7,256,86.7c93.3,0,169.3,75.9,169.3,169.3
			S349.3,425.3,256,425.3z"/>
	</g>
</g>
</svg>
