<?xml version="1.0" encoding="utf-8"?>
<!-- Generator: Adobe Illustrator 21.0.0, SVG Export Plug-In . SVG Version: 6.00 Build 0)  -->
<svg version="1.1" id="Layer_1" xmlns="http://www.w3.org/2000/svg" xmlns:xlink="http://www.w3.org/1999/xlink" x="0px" y="0px"
	 viewBox="0 0 512 512" enable-background="new 0 0 512 512" xml:space="preserve">
<g>
	<g>
		<path fill="#fff" d="M256,449.609c-3.042,0-5.947-1.247-8.054-3.454c-5.822-6.196-142.779-152.279-142.779-232.932
			c0-83.171,67.662-150.833,150.833-150.833c83.159,0,150.833,67.662,150.833,150.833c0,80.665-136.944,226.748-142.779,232.932
			C261.96,448.363,259.042,449.609,256,449.609z M256,84.508c-70.966,0-128.703,57.737-128.703,128.703
			c0,55.842,86.438,162.515,128.703,209.044c42.278-46.542,128.703-153.189,128.703-209.044
			C384.716,142.246,326.966,84.508,256,84.508z"/>
	</g>
	<g>
		<path fill="#fff" d="M256,260.426c-35.184,0-63.797-28.613-63.797-63.797c0-35.171,28.613-63.797,63.797-63.797
			c35.171,0,63.797,28.626,63.797,63.797C319.797,231.813,291.184,260.426,256,260.426z M256,154.963
			c-22.99,0-41.679,18.689-41.679,41.667c0,22.99,18.689,41.679,41.679,41.679c22.978,0,41.667-18.689,41.667-41.679
			C297.667,173.651,278.978,154.963,256,154.963z"/>
	</g>
</g>
</svg>
