<?xml version="1.0" encoding="utf-8"?>
<!-- Generator: Adobe Illustrator 17.0.0, SVG Export Plug-In . SVG Version: 6.00 Build 0)  -->
<!DOCTYPE svg PUBLIC "-//W3C//DTD SVG 1.1//EN" "http://www.w3.org/Graphics/SVG/1.1/DTD/svg11.dtd">
<svg version="1.1" id="Layer_1" xmlns="http://www.w3.org/2000/svg" xmlns:xlink="http://www.w3.org/1999/xlink" x="0px" y="0px"
	 width="512px" height="512px" viewBox="0 0 512 512" enable-background="new 0 0 512 512" fill="#AAA" xml:space="preserve">
<g>
	<path d="M445.005,422.23l-93.158-93.158c23.092-28.153,37.01-64.214,37.01-103.518c0-90.153-73.151-163.304-163.304-163.304
		c-90.232,0-163.304,73.151-163.304,163.304s73.071,163.304,163.304,163.304c39.304,0,75.286-13.839,103.439-36.931l93.158,93.079
		c6.327,6.327,16.528,6.327,22.855,0C451.332,438.758,451.332,428.477,445.005,422.23z M225.554,356.355
		c-72.202,0-130.88-58.679-130.88-130.801s58.679-130.88,130.88-130.88c72.122,0,130.88,58.758,130.88,130.88
		S297.676,356.355,225.554,356.355z"/>
</g>
</svg>
